<svg width="22" height="21" viewBox="0 0 22 21" fill="none" xmlns="http://www.w3.org/2000/svg">
<path d="M22 9.71094C22 8.60094 21.1 7.71094 20 7.71094H13.68L14.64 3.14094C14.66 3.04094 14.67 2.93094 14.67 2.82094C14.67 2.41094 14.5 2.03094 14.23 1.76094L13.17 0.710938L6.59 7.29094C6.22 7.66094 6 8.16094 6 8.71094V18.7109C6 19.2414 6.21071 19.7501 6.58579 20.1252C6.96086 20.5002 7.46957 20.7109 8 20.7109H17C17.83 20.7109 18.54 20.2109 18.84 19.4909L21.86 12.4409C21.95 12.2109 22 11.9709 22 11.7109V9.71094ZM0 20.7109H4V8.71094H0V20.7109Z" fill="white"/>
</svg>
