<svg width="23" height="31" viewBox="-2 2 25 25" fill="none" xmlns="http://www.w3.org/2000/svg">
<path d="M11.3333 9.666V5L5.5 10.8325L11.3333 16.665V11.999C15.1833 11.999 18.3333 15.1486 18.3333 18.998C18.3333 22.8475 15.1833 25.997 11.3333 25.997C7.48333 25.997 4.33333 22.8475 4.33333 18.998H2C2 24.1306 6.2 28.33 11.3333 28.33C16.4667 28.33 20.6667 24.1306 20.6667 18.998C20.6667 13.8654 16.4667 9.666 11.3333 9.666Z" fill="white"/>
<path d="M12.3333 16.665V13.0831C15.1603 13.5632 17.3333 16.0413 17.3333 18.998C17.3333 22.295 14.6312 24.997 11.3333 24.997C8.03548 24.997 5.33333 22.295 5.33333 18.998V17.998H4.33333H2H1V18.998C1 24.683 5.64785 29.33 11.3333 29.33C17.0188 29.33 21.6667 24.683 21.6667 18.998C21.6667 13.6502 17.5538 9.22092 12.3333 8.71429V5V2.58603L10.6263 4.29284L4.79294 10.1253L4.08569 10.8325L4.79294 11.5397L10.6263 17.3722L12.3333 19.079V16.665Z" stroke="black" stroke-opacity="0.15" stroke-width="2"/>
</svg>
